<?xml version="1.0" encoding="UTF-8"?>
<svg version="1.1" xmlns="http://www.w3.org/2000/svg" width="52" height="69">
<path d="M0 0 C17.16 0 34.32 0 52 0 C52 22.77 52 45.54 52 69 C34.84 69 17.68 69 0 69 C0 46.23 0 23.46 0 0 Z " fill="#B6917E" transform="translate(0,0)"/>
<path d="M0 0 C0.7528125 -0.01417969 1.505625 -0.02835938 2.28125 -0.04296875 C4.81819635 0.22055209 6.35353718 0.81867519 8.5 2.1875 C9.49 3.6725 9.49 3.6725 10.5 5.1875 C12.38332058 6.11862231 12.38332058 6.11862231 14.5 6.75 C17.26627364 7.65005595 18.39228973 8.07978973 20.5 10.1875 C20.19347955 13.1300963 19.82728846 15.53292308 18.5 18.1875 C15.2 18.1875 11.9 18.1875 8.5 18.1875 C8.5 18.8475 8.5 19.5075 8.5 20.1875 C7.84 20.1875 7.18 20.1875 6.5 20.1875 C6.5 22.8275 6.5 25.4675 6.5 28.1875 C8.10407328 28.21458567 9.7082785 28.23393483 11.3125 28.25 C12.65248047 28.26740234 12.65248047 28.26740234 14.01953125 28.28515625 C16.63413791 28.29759967 16.63413791 28.29759967 19.5 27.1875 C19.995 25.7025 19.995 25.7025 20.5 24.1875 C21.16 24.1875 21.82 24.1875 22.5 24.1875 C22.995 29.6325 22.995 29.6325 23.5 35.1875 C24.16 34.5275 24.82 33.8675 25.5 33.1875 C26.16 33.1875 26.82 33.1875 27.5 33.1875 C27.5 41.7675 27.5 50.3475 27.5 59.1875 C24.2 59.1875 20.9 59.1875 17.5 59.1875 C17.5 55.5575 17.5 51.9275 17.5 48.1875 C12.58514186 49.5784864 12.58514186 49.5784864 11.1875 52.3125 C10.8471875 53.240625 10.8471875 53.240625 10.5 54.1875 C7.89472895 54.29542837 5.29391689 54.37474878 2.6875 54.4375 C1.94951172 54.47101563 1.21152344 54.50453125 0.45117188 54.5390625 C-4.99401269 54.63761788 -4.99401269 54.63761788 -7.375 52.51953125 C-8.62941657 49.91923024 -9.7209451 47.34690747 -10.6875 44.625 C-11.03167969 43.67496094 -11.37585938 42.72492187 -11.73046875 41.74609375 C-12.5 39.1875 -12.5 39.1875 -12.5 36.1875 C-13.16 36.1875 -13.82 36.1875 -14.5 36.1875 C-15.54976964 33.03819107 -15.60131595 30.79935544 -15.5625 27.5 C-15.55347656 26.50613281 -15.54445313 25.51226562 -15.53515625 24.48828125 C-15.52355469 23.72902344 -15.51195312 22.96976563 -15.5 22.1875 C-14.51 22.1875 -13.52 22.1875 -12.5 22.1875 C-12.5 23.1775 -12.5 24.1675 -12.5 25.1875 C-8.18803391 26.13074258 -3.87934119 26.66791715 0.5 27.1875 C1.16 23.8875 1.82 20.5875 2.5 17.1875 C-1.46 16.8575 -5.42 16.5275 -9.5 16.1875 C-9.5 14.5375 -9.5 12.8875 -9.5 11.1875 C-10.16 11.1875 -10.82 11.1875 -11.5 11.1875 C-11.86521739 4.73532609 -11.86521739 4.73532609 -10.25 2.3125 C-7.04925514 0.25487831 -3.74089305 0.03202819 0 0 Z " fill="#9C7269" transform="translate(24.5,9.8125)"/>
<path d="M0 0 C17.16 0 34.32 0 52 0 C52 5.28 52 10.56 52 16 C50.9275 15.071875 49.855 14.14375 48.75 13.1875 C46.72709404 11.44361555 44.73414979 9.80913318 42.5625 8.25 C42.046875 7.8375 41.53125 7.425 41 7 C41 6.34 41 5.68 41 5 C32.99236706 3.79130069 24.9547587 3.19405478 17 5 C17 5.66 17 6.32 17 7 C16.0925 7.598125 15.185 8.19625 14.25 8.8125 C6.74642361 13.86298411 5.59378654 19.9867995 3.875 28.4375 C3.58046001 29.95777947 3.28778244 31.47842689 3 33 C3.66 33 4.32 33 5 33 C5 35.97 5 38.94 5 42 C5.99 41.505 5.99 41.505 7 41 C6.47731534 43.76276177 5.89130413 46.3260876 5 49 C5.99 49 6.98 49 8 49 C10.1103435 53.27884606 10.24128739 57.13864142 10.125 61.8125 C10.11597656 62.50537109 10.10695313 63.19824219 10.09765625 63.91210938 C10.07426157 65.60822395 10.03839641 67.30415871 10 69 C6.7 69 3.4 69 0 69 C0 46.23 0 23.46 0 0 Z " fill="#C0C1C1" transform="translate(0,0)"/>
<path d="M0 0 C0.7528125 -0.01417969 1.505625 -0.02835938 2.28125 -0.04296875 C4.81819635 0.22055209 6.35353718 0.81867519 8.5 2.1875 C9.49 3.6725 9.49 3.6725 10.5 5.1875 C12.38332058 6.11862231 12.38332058 6.11862231 14.5 6.75 C17.26627364 7.65005595 18.39228973 8.07978973 20.5 10.1875 C20.19347955 13.1300963 19.82728846 15.53292308 18.5 18.1875 C15.2 18.1875 11.9 18.1875 8.5 18.1875 C8.5 18.8475 8.5 19.5075 8.5 20.1875 C7.84 20.1875 7.18 20.1875 6.5 20.1875 C7.02480001 26.47658482 7.02480001 26.47658482 9.5 32.1875 C5.6588382 32.89301951 2.6345263 33.20767894 -1.25 32.625 C-4.64079418 31.80415659 -4.64079418 31.80415659 -7.5 34.1875 C-11.25698557 34.56319856 -12.25366476 34.3517235 -15.5 32.1875 C-15.79296875 29.8046875 -15.79296875 29.8046875 -15.6875 27.0625 C-15.66042969 26.15242188 -15.63335937 25.24234375 -15.60546875 24.3046875 C-15.57066406 23.60601562 -15.53585937 22.90734375 -15.5 22.1875 C-14.51 22.1875 -13.52 22.1875 -12.5 22.1875 C-12.5 23.1775 -12.5 24.1675 -12.5 25.1875 C-8.18803391 26.13074258 -3.87934119 26.66791715 0.5 27.1875 C1.16 23.8875 1.82 20.5875 2.5 17.1875 C-1.46 16.8575 -5.42 16.5275 -9.5 16.1875 C-9.5 14.5375 -9.5 12.8875 -9.5 11.1875 C-10.16 11.1875 -10.82 11.1875 -11.5 11.1875 C-11.86521739 4.73532609 -11.86521739 4.73532609 -10.25 2.3125 C-7.04925514 0.25487831 -3.74089305 0.03202819 0 0 Z " fill="#D4A893" transform="translate(24.5,9.8125)"/>
<path d="M0 0 C1.32 0.33 2.64 0.66 4 1 C3.85966889 2.97956441 3.7125877 4.95865141 3.5625 6.9375 C3.48128906 8.03964844 3.40007813 9.14179688 3.31640625 10.27734375 C3 13 3 13 2 14 C1.90016316 15.91451817 1.87032411 17.83288619 1.875 19.75 C1.87242188 20.79671875 1.86984375 21.8434375 1.8671875 22.921875 C1.98844652 25.73223122 2.36215909 28.26639609 3 31 C3.66 31 4.32 31 5 31 C5.33773438 31.96421875 5.67546875 32.9284375 6.0234375 33.921875 C6.47382212 35.19796475 6.92435053 36.47400376 7.375 37.75 C7.70757813 38.70132813 7.70757813 38.70132813 8.046875 39.671875 C9.18719302 42.89159648 10.37470165 45.99243857 12 49 C14.58577227 48.93986576 17.1658681 48.85282878 19.75 48.75 C20.47960937 48.73582031 21.20921875 48.72164062 21.9609375 48.70703125 C25.47276604 48.54740268 27.54131711 48.38908962 30.265625 46.078125 C30.83796875 45.39234375 31.4103125 44.7065625 32 44 C33.32 43.34 34.64 42.68 36 42 C35.67 45.96 35.34 49.92 35 54 C24.44 54 13.88 54 3 54 C2.505 46.575 2.505 46.575 2 39 C1.67 37.35 1.34 35.7 1 34 C0.01 34 -0.98 34 -2 34 C-1.505 31.03 -1.505 31.03 -1 28 C-1.66 27.67 -2.32 27.34 -3 27 C-2.505 22.545 -2.505 22.545 -2 18 C-2.66 18 -3.32 18 -4 18 C-3.71710528 15.74888027 -3.42335307 13.49912314 -3.125 11.25 C-2.96257813 9.99703125 -2.80015625 8.7440625 -2.6328125 7.453125 C-2.0941645 4.51383592 -1.51991159 2.52892853 0 0 Z " fill="#846C62" transform="translate(7,15)"/>
<path d="M0 0 C1.44031588 2.88063176 0.67629179 4.85839201 0.125 8 C-0.05804687 9.0725 -0.24109375 10.145 -0.4296875 11.25 C-1 14 -1 14 -2 16 C-1.34 16 -0.68 16 0 16 C0 18.97 0 21.94 0 25 C0.66 24.67 1.32 24.34 2 24 C1.47731534 26.76276177 0.89130413 29.3260876 0 32 C0.99 32 1.98 32 3 32 C5.1103435 36.27884606 5.24128739 40.13864142 5.125 44.8125 C5.11597656 45.50537109 5.10695313 46.19824219 5.09765625 46.91210938 C5.07426157 48.60822395 5.03839641 50.30415871 5 52 C1.7 52 -1.6 52 -5 52 C-5 35.5 -5 19 -5 2 C-3.35 1.34 -1.7 0.68 0 0 Z " fill="#BFBEBE" transform="translate(5,17)"/>
<path d="M0 0 C0.66 0 1.32 0 2 0 C2 0.66 2 1.32 2 2 C3.65 2.33 5.3 2.66 7 3 C7.33 4.65 7.66 6.3 8 8 C9.32 7.67 10.64 7.34 12 7 C12.11597653 10.77057547 12.18717396 14.54069393 12.25 18.3125 C12.30027344 19.9202832 12.30027344 19.9202832 12.3515625 21.56054688 C12.36445312 22.58857422 12.37734375 23.61660156 12.390625 24.67578125 C12.41157227 25.62364502 12.43251953 26.57150879 12.45410156 27.5480957 C12 30 12 30 9.97558594 31.83276367 C9.32364258 32.21795166 8.67169922 32.60313965 8 33 C7 32 7 32 6.90234375 29.49609375 C6.91394531 28.48675781 6.92554688 27.47742188 6.9375 26.4375 C6.94652344 25.42558594 6.95554687 24.41367187 6.96484375 23.37109375 C6.97644531 22.58863281 6.98804688 21.80617188 7 21 C6.34 21 5.68 21 5 21 C4.67 22.32 4.34 23.64 4 25 C-4.42857143 26.28571429 -4.42857143 26.28571429 -9 25 C-9 22.36 -9 19.72 -9 17 C-8.34 17 -7.68 17 -7 17 C-7 16.34 -7 15.68 -7 15 C-3.7 15 -0.4 15 3 15 C3.81423318 11.01416301 3.81423318 11.01416301 4 7 C2.18911155 4.13034253 2.18911155 4.13034253 0 2 C0 1.34 0 0.68 0 0 Z " fill="#806358" transform="translate(40,13)"/>
<path d="M0 0 C1.32 0.66 2.64 1.32 4 2 C3.67 4.31 3.34 6.62 3 9 C1.68 9 0.36 9 -1 9 C-1 9.66 -1 10.32 -1 11 C1.31 11.33 3.62 11.66 6 12 C6 12.66 6 13.32 6 14 C5.34 14 4.68 14 4 14 C4 14.99 4 15.98 4 17 C6.97 17.66 9.94 18.32 13 19 C10 22 10 22 7.40625 22.3984375 C6.4471875 22.39070313 5.488125 22.38296875 4.5 22.375 C3.5409375 22.38273437 2.581875 22.39046875 1.59375 22.3984375 C-1 22 -1 22 -2.70703125 20.8203125 C-4.36195837 18.49041511 -5.24195025 16.1953602 -6.1875 13.5 C-6.53167969 12.5409375 -6.87585938 11.581875 -7.23046875 10.59375 C-8 8 -8 8 -8 5 C-8.66 5 -9.32 5 -10 5 C-10.33 3.68 -10.66 2.36 -11 1 C-9.01432292 1.32552083 -7.02864583 1.65104167 -5.04296875 1.9765625 C-2.68244176 2.19577848 -2.68244176 2.19577848 0 0 Z " fill="#B78F79" transform="translate(20,41)"/>
<path d="M0 0 C1.58323688 -0.027193 3.16661062 -0.04648306 4.75 -0.0625 C6.07257812 -0.07990234 6.07257812 -0.07990234 7.421875 -0.09765625 C9.7818838 -0.00826198 11.74498524 0.33087179 14 1 C14 1.66 14 2.32 14 3 C14.556875 3.226875 15.11375 3.45375 15.6875 3.6875 C18.64176591 5.36424552 20.66847851 7.54576685 23 10 C23.66 10.66 24.32 11.32 25 12 C24.625 14.625 24.625 14.625 24 17 C23.01 17 22.02 17 21 17 C20.67 15.35 20.34 13.7 20 12 C17.525 11.505 17.525 11.505 15 11 C15 10.34 15 9.68 15 9 C14.34 9 13.68 9 13 9 C13.66 10.32 14.32 11.64 15 13 C11.6875 12.75 11.6875 12.75 8 12 C7.5359375 11.360625 7.071875 10.72125 6.59375 10.0625 C4.55923975 7.42960438 2.99459096 7.07651713 -0.1875 6.25 C-1.08855469 6.00765625 -1.98960938 5.7653125 -2.91796875 5.515625 C-3.60503906 5.34546875 -4.29210937 5.1753125 -5 5 C-5 4.34 -5 3.68 -5 3 C-5.66 2.67 -6.32 2.34 -7 2 C-4.03 2.33 -1.06 2.66 2 3 C1.34 2.01 0.68 1.02 0 0 Z " fill="#79695D" transform="translate(27,4)"/>
<path d="M0 0 C2.4375 2.4375 2.4375 2.4375 4 5 C4.66 5.33 5.32 5.66 6 6 C6 6.66 6 7.32 6 8 C4.68 8.33 3.36 8.66 2 9 C2.66 9.33 3.32 9.66 4 10 C4.625 12.0625 4.625 12.0625 5 14 C1.57310364 15.14229879 -0.61102218 14.90861076 -4.1875 14.5625 C-5.27417969 14.46066406 -6.36085938 14.35882813 -7.48046875 14.25390625 C-8.31191406 14.17011719 -9.14335937 14.08632813 -10 14 C-9.95746094 13.21753906 -9.91492188 12.43507813 -9.87109375 11.62890625 C-9.71361686 8.82463926 -9.71361686 8.82463926 -12.0625 6.9375 C-12.701875 6.298125 -13.34125 5.65875 -14 5 C-13.75 2.75 -13.75 2.75 -13 1 C-8.67568777 -0.19901385 -4.45550813 -0.76309808 0 0 Z " fill="#E2B8A0" transform="translate(32,11)"/>
<path d="M0 0 C0.33 0 0.66 0 1 0 C1 7.26 1 14.52 1 22 C-2.3 22 -5.6 22 -9 22 C-9 18.7 -9 15.4 -9 12 C-8.34 12 -7.68 12 -7 12 C-6.67 10.02 -6.34 8.04 -6 6 C-5.01 5.67 -4.02 5.34 -3 5 C-2.67 4.34 -2.34 3.68 -2 3 C-1.34 3 -0.68 3 0 3 C0 2.01 0 1.02 0 0 Z " fill="#C2C1C1" transform="translate(51,47)"/>
<path d="M0 0 C0.66 0 1.32 0 2 0 C2.33 3.63 2.66 7.26 3 11 C3.66 10.34 4.32 9.68 5 9 C5.66 9 6.32 9 7 9 C6.67 11.31 6.34 13.62 6 16 C5.34 16 4.68 16 4 16 C3.67 16.66 3.34 17.32 3 18 C2.67 17.34 2.34 16.68 2 16 C2.33 15.34 2.66 14.68 3 14 C2.46375 14.185625 1.9275 14.37125 1.375 14.5625 C-1.63073689 15.11618837 -4.00980167 14.56066219 -7 14 C-8.32 14 -9.64 14 -11 14 C-10.67 11.36 -10.34 8.72 -10 6 C-8.02 6 -6.04 6 -4 6 C-4 5.34 -4 4.68 -4 4 C-3.01 3.67 -2.02 3.34 -1 3 C-0.67 2.01 -0.34 1.02 0 0 Z " fill="#91766F" transform="translate(45,34)"/>
<path d="M0 0 C0.66 0 1.32 0 2 0 C2 0.66 2 1.32 2 2 C3.65 2.33 5.3 2.66 7 3 C7.33 4.65 7.66 6.3 8 8 C9.32 7.67 10.64 7.34 12 7 C12.11597653 10.77057547 12.18717396 14.54069393 12.25 18.3125 C12.30027344 19.9202832 12.30027344 19.9202832 12.3515625 21.56054688 C12.36445312 22.58857422 12.37734375 23.61660156 12.390625 24.67578125 C12.41157227 25.62364502 12.43251953 26.57150879 12.45410156 27.5480957 C12 30 12 30 9.97558594 31.83276367 C9.32364258 32.21795166 8.67169922 32.60313965 8 33 C6.30758745 31.30758745 6.87092993 29.14296322 6.859375 26.828125 C6.84003906 25.77109375 6.82070313 24.7140625 6.80078125 23.625 C6.76716487 21.39080353 6.74871634 19.15632282 6.74609375 16.921875 C6.70869142 10.40351399 6.70869142 10.40351399 3.515625 4.921875 C2.27039062 3.97054688 2.27039062 3.97054688 1 3 C0.67 2.01 0.34 1.02 0 0 Z " fill="#685145" transform="translate(40,13)"/>
<path d="M0 0 C0 0.66 0 1.32 0 2 C5.445 1.505 5.445 1.505 11 1 C10 5 10 5 9 7 C8.34 7 7.68 7 7 7 C6.9175 7.61875 6.835 8.2375 6.75 8.875 C6 11 6 11 4.34375 12.125 C1.36570123 13.23680487 -1.07948829 13.19392417 -4.25 13.125 C-5.32765625 13.10695313 -6.4053125 13.08890625 -7.515625 13.0703125 C-8.33546875 13.04710938 -9.1553125 13.02390625 -10 13 C-10 12.67 -10 12.34 -10 12 C-9.22914062 11.93941406 -8.45828125 11.87882812 -7.6640625 11.81640625 C-6.66117188 11.73261719 -5.65828125 11.64882813 -4.625 11.5625 C-3.62726562 11.48128906 -2.62953125 11.40007813 -1.6015625 11.31640625 C0.97927613 11.15034374 0.97927613 11.15034374 3 10 C0.03 9.01 -2.94 8.02 -6 7 C-5.67 6.01 -5.34 5.02 -5 4 C-4.34 4 -3.68 4 -3 4 C-3 3.34 -3 2.68 -3 2 C-4.65 2 -6.3 2 -8 2 C-4.77208445 -0.1519437 -3.71599191 -0.20086443 0 0 Z " fill="#A57E70" transform="translate(29,51)"/>
<path d="M0 0 C1.31157516 2.62315032 0.89649988 4.23033436 0.5625 7.125 C0.46066406 8.03507812 0.35882813 8.94515625 0.25390625 9.8828125 C0.17011719 10.58148438 0.08632813 11.28015625 0 12 C-2.93774463 12.05390357 -5.87450232 12.0936255 -8.8125 12.125 C-9.64587891 12.14175781 -10.47925781 12.15851563 -11.33789062 12.17578125 C-12.14033203 12.18222656 -12.94277344 12.18867187 -13.76953125 12.1953125 C-14.87711792 12.21102295 -14.87711792 12.21102295 -16.00708008 12.22705078 C-18 12 -18 12 -21 10 C-21 9.34 -21 8.68 -21 8 C-20.03578125 7.90203125 -19.0715625 7.8040625 -18.078125 7.703125 C-16.81484375 7.55359375 -15.5515625 7.4040625 -14.25 7.25 C-12.99703125 7.11078125 -11.7440625 6.9715625 -10.453125 6.828125 C-6.63499121 5.91246396 -5.48515544 4.9329312 -3 2 C-2.01 1.34 -1.02 0.68 0 0 Z " fill="#694C41" transform="translate(42,57)"/>
<path d="M0 0 C1.46373047 0.02707031 1.46373047 0.02707031 2.95703125 0.0546875 C3.69308594 0.07789063 4.42914063 0.10109375 5.1875 0.125 C5.1875 0.455 5.1875 0.785 5.1875 1.125 C3.5375 1.455 1.8875 1.785 0.1875 2.125 C1.1775 2.785 2.1675 3.445 3.1875 4.125 C2.8575 4.785 2.5275 5.445 2.1875 6.125 C1.424375 5.795 0.66125 5.465 -0.125 5.125 C-2.80319135 3.95063314 -2.80319135 3.95063314 -5.8125 4.125 C-5.8125 4.785 -5.8125 5.445 -5.8125 6.125 C-4.8225 6.455 -3.8325 6.785 -2.8125 7.125 C-6.4425 7.785 -10.0725 8.445 -13.8125 9.125 C-13.93367187 10.05183594 -14.05484375 10.97867187 -14.1796875 11.93359375 C-14.43105469 13.72990234 -14.43105469 13.72990234 -14.6875 15.5625 C-14.84992187 16.75746094 -15.01234375 17.95242187 -15.1796875 19.18359375 C-15.49292969 20.63958984 -15.49292969 20.63958984 -15.8125 22.125 C-16.4725 22.455 -17.1325 22.785 -17.8125 23.125 C-17.4825 19.825 -17.1525 16.525 -16.8125 13.125 C-18.1325 12.465 -19.4525 11.805 -20.8125 11.125 C-19.52622289 9.95239389 -18.23330217 8.7870717 -16.9375 7.625 C-16.21820312 6.9753125 -15.49890625 6.325625 -14.7578125 5.65625 C-12.8125 4.125 -12.8125 4.125 -10.8125 4.125 C-10.8125 3.465 -10.8125 2.805 -10.8125 2.125 C-7.04027911 0.37336544 -4.145861 -0.09990027 0 0 Z " fill="#736F67" transform="translate(27.8125,2.875)"/>
<path d="M0 0 C1.69141656 0.08963062 3.37959602 0.24577676 5.0625 0.4375 C6.44115234 0.59025391 6.44115234 0.59025391 7.84765625 0.74609375 C8.55792969 0.82988281 9.26820312 0.91367187 10 1 C10 2.65 10 4.3 10 6 C9.01 6 8.02 6 7 6 C6.67 7.98 6.34 9.96 6 12 C5.01 12 4.02 12 3 12 C0.91666667 12.16666667 0.91666667 12.16666667 -1 13 C-2.28436734 14.9837767 -2.28436734 14.9837767 -3 17 C-4.32 16.67 -5.64 16.34 -7 16 C-6.0409375 15.5978125 -6.0409375 15.5978125 -5.0625 15.1875 C-2.66868314 14.11332248 -2.66868314 14.11332248 -2 11 C-1.34 11 -0.68 11 0 11 C0.66 9.02 1.32 7.04 2 5 C0.68 5.33 -0.64 5.66 -2 6 C-2 5.34 -2 4.68 -2 4 C-3.32 3.67 -4.64 3.34 -6 3 C-5.195625 2.690625 -4.39125 2.38125 -3.5625 2.0625 C-1.10919595 1.23664655 -1.10919595 1.23664655 0 0 Z " fill="#84695F" transform="translate(38,47)"/>
<path d="M0 0 C1.32 0.33 2.64 0.66 4 1 C3.63419196 8.45491562 2.79080349 15.04931961 0 22 C-0.33 20.68 -0.66 19.36 -1 18 C-1.99 18 -2.98 18 -4 18 C-3.71710528 15.74888027 -3.42335307 13.49912314 -3.125 11.25 C-2.96257813 9.99703125 -2.80015625 8.7440625 -2.6328125 7.453125 C-2.0941645 4.51383592 -1.51991159 2.52892853 0 0 Z " fill="#4E3E36" transform="translate(7,15)"/>
<path d="M0 0 C0.99 0 1.98 0 3 0 C3 0.99 3 1.98 3 3 C4.65 3.33 6.3 3.66 8 4 C8 4.66 8 5.32 8 6 C9.98 6 11.96 6 14 6 C11.7154278 9.56393264 10.60872846 10.8398083 6.4375 11.9375 C3 12 3 12 0 10 C-0.29296875 7.6171875 -0.29296875 7.6171875 -0.1875 4.875 C-0.16042969 3.96492188 -0.13335937 3.05484375 -0.10546875 2.1171875 C-0.07066406 1.41851562 -0.03585937 0.71984375 0 0 Z " fill="#DCAF9D" transform="translate(9,32)"/>
<path d="M0 0 C2.97 0.495 2.97 0.495 6 1 C6 1.99 6 2.98 6 4 C5.01 4.33 4.02 4.66 3 5 C3.33 5.33 3.66 5.66 4 6 C4.04063832 7.66617115 4.042721 9.33388095 4 11 C-3.59498961 11.26442904 -10.57359158 10.60881575 -18 9 C-18 8.01 -18 7.02 -18 6 C-16.68 6 -15.36 6 -14 6 C-14 6.99 -14 7.98 -14 9 C-13.01 8.7215625 -13.01 8.7215625 -12 8.4375 C-8.10669886 7.86972692 -4.88624521 8.40718293 -1 9 C-0.67 7.68 -0.34 6.36 0 5 C-0.99 4.67 -1.98 4.34 -3 4 C-1.35 3.67 0.3 3.34 2 3 C2 2.34 2 1.68 2 1 C1.34 0.67 0.68 0.34 0 0 Z " fill="#DBB29D" transform="translate(36,16)"/>
<path d="M0 0 C0.99 0.66 1.98 1.32 3 2 C2.125 7.75 2.125 7.75 1 10 C-2.3 10 -5.6 10 -9 10 C-9 10.66 -9 11.32 -9 12 C-9.66 12 -10.32 12 -11 12 C-11 12.66 -11 13.32 -11 14 C-12.32 14 -13.64 14 -15 14 C-15 12.35 -15 10.7 -15 9 C-15.99 8.67 -16.98 8.34 -18 8 C-12.72 8.33 -7.44 8.66 -2 9 C-2 7.35 -2 5.7 -2 4 C-2.66 3.67 -3.32 3.34 -4 3 C-2.68 2.67 -1.36 2.34 0 2 C0 1.34 0 0.68 0 0 Z " fill="#B79481" transform="translate(42,18)"/>
<path d="M0 0 C0.33 0.66 0.66 1.32 1 2 C1.66 2 2.32 2 3 2 C4.88695626 6.28853694 6.58192622 10.52761347 8 15 C5.36 15 2.72 15 0 15 C0 10.05 0 5.1 0 0 Z " fill="#7A5B4F" transform="translate(11,54)"/>
<path d="M0 0 C1.258125 -0.020625 2.51625 -0.04125 3.8125 -0.0625 C4.52019531 -0.07410156 5.22789063 -0.08570312 5.95703125 -0.09765625 C8 0 8 0 11 1 C11 3.31 11 5.62 11 8 C7.67465243 9.10844919 5.37817425 8.84454356 2 8 C3 5 3 5 5 3 C3.35 2.67 1.7 2.34 0 2 C0 1.34 0 0.68 0 0 Z " fill="#8B6458" transform="translate(16,26)"/>
<path d="M0 0 C3 2 3 2 3.73046875 4.6015625 C3.88128906 5.59929688 4.03210938 6.59703125 4.1875 7.625 C4.34605469 8.62789062 4.50460938 9.63078125 4.66796875 10.6640625 C4.77753906 11.43492188 4.88710937 12.20578125 5 13 C5.66 13 6.32 13 7 13 C6.6875 14.9375 6.6875 14.9375 6 17 C5.01 17.33 4.02 17.66 3 18 C3 17.34 3 16.68 3 16 C2.01 16 1.02 16 0 16 C0.33 14.02 0.66 12.04 1 10 C0.34 9.67 -0.32 9.34 -1 9 C-0.67 6.03 -0.34 3.06 0 0 Z " fill="#937369" transform="translate(5,33)"/>
<path d="M0 0 C-0.33 2.31 -0.66 4.62 -1 7 C-2.27875 7.061875 -3.5575 7.12375 -4.875 7.1875 C-5.59429687 7.22230469 -6.31359375 7.25710937 -7.0546875 7.29296875 C-7.69664063 7.19628906 -8.33859375 7.09960938 -9 7 C-11 4 -11 4 -11 1 C-7.27569643 0.30710631 -3.78916254 -0.11144596 0 0 Z " fill="#B99685" transform="translate(46,39)"/>
<path d="M0 0 C0.33 0.66 0.66 1.32 1 2 C1.721875 1.731875 2.44375 1.46375 3.1875 1.1875 C6 1 6 1 8.75 3.125 C10.97019149 5.96191135 11.69762101 7.47224511 12 11 C10.68 11.33 9.36 11.66 8 12 C7.67 10.35 7.34 8.7 7 7 C6.21625 6.896875 5.4325 6.79375 4.625 6.6875 C2 6 2 6 0 3 C0 2.01 0 1.02 0 0 Z " fill="#8B7F72" transform="translate(40,9)"/>
<path d="M0 0 C2.31 0.33 4.62 0.66 7 1 C7 1.99 7 2.98 7 4 C6.01 4.495 6.01 4.495 5 5 C5 5.66 5 6.32 5 7 C6.32 6.67 7.64 6.34 9 6 C9 6.66 9 7.32 9 8 C9.66 8 10.32 8 11 8 C11 8.66 11 9.32 11 10 C3.61538462 10.36923077 3.61538462 10.36923077 0.5 8.5 C0.005 8.005 -0.49 7.51 -1 7 C-0.67 6.01 -0.34 5.02 0 4 C1.32 4 2.64 4 4 4 C4 3.34 4 2.68 4 2 C2.35 2.33 0.7 2.66 -1 3 C-0.67 2.01 -0.34 1.02 0 0 Z " fill="#946F62" transform="translate(14,27)"/>
<path d="M0 0 C1.98 0.99 1.98 0.99 4 2 C4.05410687 3.77049689 4.09284119 5.54146849 4.125 7.3125 C4.14820313 8.29863281 4.17140625 9.28476562 4.1953125 10.30078125 C4 13 4 13 2 16 C1.34 16 0.68 16 0 16 C0 10.72 0 5.44 0 0 Z " fill="#2D251E" transform="translate(48,24)"/>
<path d="M0 0 C1.5778125 0.1546875 1.5778125 0.1546875 3.1875 0.3125 C1.8125 1.8125 1.8125 1.8125 0.1875 3.3125 C-0.4725 3.3125 -1.1325 3.3125 -1.8125 3.3125 C-1.93367187 4.23933594 -2.05484375 5.16617187 -2.1796875 6.12109375 C-2.34726563 7.31863281 -2.51484375 8.51617187 -2.6875 9.75 C-2.84992187 10.94496094 -3.01234375 12.13992187 -3.1796875 13.37109375 C-3.49292969 14.82708984 -3.49292969 14.82708984 -3.8125 16.3125 C-4.4725 16.6425 -5.1325 16.9725 -5.8125 17.3125 C-5.4825 14.0125 -5.1525 10.7125 -4.8125 7.3125 C-6.1325 6.6525 -7.4525 5.9925 -8.8125 5.3125 C-5.88314862 1.76177106 -4.6956049 0.38488565 0 0 Z " fill="#7F6A5B" transform="translate(15.8125,8.6875)"/>
<path d="M0 0 C0.66 0.33 1.32 0.66 2 1 C1.85831863 2.43791516 1.71148957 3.8753237 1.5625 5.3125 C1.48128906 6.11300781 1.40007813 6.91351563 1.31640625 7.73828125 C1 10 1 10 0 13 C-5.75 13.125 -5.75 13.125 -8 12 C-8 10 -8 10 -6 8 C-4.68 8 -3.36 8 -2 8 C-1.34 5.36 -0.68 2.72 0 0 Z " fill="#85695E" transform="translate(45,20)"/>
<path d="M0 0 C1.58467728 0.28427417 3.1677057 0.57774818 4.75 0.875 C6.07257812 1.11863281 6.07257812 1.11863281 7.421875 1.3671875 C9.86947744 1.96796264 11.80599857 2.77997117 14 4 C10.57905758 6.28062828 9.31812778 6.21925007 5.3125 6.125 C3.82169922 6.09792969 3.82169922 6.09792969 2.30078125 6.0703125 C1.54152344 6.04710937 0.78226563 6.02390625 0 6 C-1 3 -1 3 0 0 Z " fill="#CEA796" transform="translate(19,57)"/>
<path d="M0 0 C2.875 -0.125 2.875 -0.125 6 0 C6.66 0.66 7.32 1.32 8 2 C6.35 2.66 4.7 3.32 3 4 C6.465 5.485 6.465 5.485 10 7 C10 7.66 10 8.32 10 9 C6.37 8.67 2.74 8.34 -1 8 C-1.125 2.25 -1.125 2.25 0 0 Z " fill="#533A2F" transform="translate(33,28)"/>
<path d="M0 0 C0 0.66 0 1.32 0 2 C1.98 2 3.96 2 6 2 C5.01 2.495 5.01 2.495 4 3 C4 4.32 4 5.64 4 7 C0.625 7.1875 0.625 7.1875 -3 7 C-3.66 6.01 -4.32 5.02 -5 4 C-4.34 4 -3.68 4 -3 4 C-3 3.34 -3 2.68 -3 2 C-4.65 2 -6.3 2 -8 2 C-4.77208445 -0.1519437 -3.71599191 -0.20086443 0 0 Z " fill="#9F7067" transform="translate(29,51)"/>
<path d="M0 0 C2.97 0.33 5.94 0.66 9 1 C9 1.66 9 2.32 9 3 C8.34 3 7.68 3 7 3 C7 4.32 7 5.64 7 7 C6.401875 6.773125 5.80375 6.54625 5.1875 6.3125 C4.1046875 6.1578125 4.1046875 6.1578125 3 6 C2.01 6.99 1.02 7.98 0 9 C0 6.03 0 3.06 0 0 Z " fill="#C99D89" transform="translate(17,52)"/>
<path d="M0 0 C1.84765625 0.33984375 1.84765625 0.33984375 4.0625 0.9375 C5.16271484 1.22947266 5.16271484 1.22947266 6.28515625 1.52734375 C7.13400391 1.76130859 7.13400391 1.76130859 8 2 C7.67 2.99 7.34 3.98 7 5 C3.846632 5.70074844 1.27275026 6 -2 6 C-2 5.34 -2 4.68 -2 4 C-3.32 3.67 -4.64 3.34 -6 3 C-5.195625 2.690625 -4.39125 2.38125 -3.5625 2.0625 C-1.10919595 1.23664655 -1.10919595 1.23664655 0 0 Z " fill="#926F5F" transform="translate(38,47)"/>
<path d="M0 0 C1.62490954 -0.02698189 3.24994633 -0.04638757 4.875 -0.0625 C5.77992187 -0.07410156 6.68484375 -0.08570313 7.6171875 -0.09765625 C10 0 10 0 12 1 C11.67 2.32 11.34 3.64 11 5 C10.01 4.67 9.02 4.34 8 4 C7.67 4.66 7.34 5.32 7 6 C3.31197956 4.77065985 2.27643027 3.06140622 0 0 Z " fill="#46443E" transform="translate(27,4)"/>
<path d="M0 0 C0.66 0 1.32 0 2 0 C4.61382886 3.92074329 4.29386386 7.44511017 4 12 C3.34 12.66 2.68 13.32 2 14 C2 12.68 2 11.36 2 10 C1.01 10 0.02 10 -1 10 C-0.67 6.7 -0.34 3.4 0 0 Z " fill="#3A312B" transform="translate(4,23)"/>
<path d="M0 0 C1.4552777 2.9105554 0.63516661 4.95849052 0.0625 8.125 C-0.13214844 9.22070312 -0.32679688 10.31640625 -0.52734375 11.4453125 C-0.76130859 12.70988281 -0.76130859 12.70988281 -1 14 C-1.33 14 -1.66 14 -2 14 C-2 12.02 -2 10.04 -2 8 C-2.99 8 -3.98 8 -5 8 C-5 6.02 -5 4.04 -5 2 C-3.35 1.34 -1.7 0.68 0 0 Z " fill="#A67C7E" transform="translate(5,17)"/>
<path d="M0 0 C3.96 0 7.92 0 12 0 C12.33 0.99 12.66 1.98 13 3 C8.71 3 4.42 3 0 3 C0 2.01 0 1.02 0 0 Z " fill="#C6C8C8" transform="translate(23,0)"/>
<path d="M0 0 C1.12921875 0.13535156 1.12921875 0.13535156 2.28125 0.2734375 C4.39772937 0.60879515 6.4313137 1.07021595 8.5 1.625 C8.5 2.285 8.5 2.945 8.5 3.625 C6.19 3.625 3.88 3.625 1.5 3.625 C1.5 2.965 1.5 2.305 1.5 1.625 C-1.8 1.955 -5.1 2.285 -8.5 2.625 C-8.5 1.965 -8.5 1.305 -8.5 0.625 C-5.46998261 -0.29777802 -3.13459814 -0.39719223 0 0 Z " fill="#6D4136" transform="translate(27.5,49.375)"/>
<path d="M0 0 C0.66 0.33 1.32 0.66 2 1 C2 1.66 2 2.32 2 3 C4.64 3 7.28 3 10 3 C10.33 2.34 10.66 1.68 11 1 C11 2.65 11 4.3 11 6 C9.046875 5.73958333 7.09375 5.47916667 5.140625 5.21875 C2.69541605 4.93222643 2.69541605 4.93222643 -1 5 C-0.67 3.35 -0.34 1.7 0 0 Z " fill="#A78271" transform="translate(35,43)"/>
<path d="M0 0 C2.64 0 5.28 0 8 0 C8.33 1.32 8.66 2.64 9 4 C2.375 4.125 2.375 4.125 -1 3 C-0.67 2.01 -0.34 1.02 0 0 Z " fill="#73483C" transform="translate(24,42)"/>
<path d="M0 0 C7.75 0.875 7.75 0.875 10 2 C9.3125 3.9375 9.3125 3.9375 8 6 C5.375 6.75 5.375 6.75 3 7 C3 6.01 3 5.02 3 4 C2.34 4 1.68 4 1 4 C0.67 2.68 0.34 1.36 0 0 Z " fill="#C29785" transform="translate(9,42)"/>
<path d="M0 0 C2.97 0.33 5.94 0.66 9 1 C7.8125 3 7.8125 3 6 5 C3.3125 5.25 3.3125 5.25 1 5 C0.67 3.35 0.34 1.7 0 0 Z " fill="#ECBEAF" transform="translate(14,37)"/>
<path d="M0 0 C0.99 0 1.98 0 3 0 C3 0.99 3 1.98 3 3 C3.66 3.33 4.32 3.66 5 4 C4.67 4.66 4.34 5.32 4 6 C4.66 6.33 5.32 6.66 6 7 C5.01 7 4.02 7 3 7 C3 6.01 3 5.02 3 4 C2.01 4 1.02 4 0 4 C0 6.97 0 9.94 0 13 C-0.33 13 -0.66 13 -1 13 C-1.02686553 11.02090602 -1.04633375 9.04171029 -1.0625 7.0625 C-1.07410156 5.96035156 -1.08570313 4.85820313 -1.09765625 3.72265625 C-1 1 -1 1 0 0 Z " fill="#B19185" transform="translate(9,28)"/>
<path d="M0 0 C6.93 0.495 6.93 0.495 14 1 C14 1.33 14 1.66 14 2 C10.7 2 7.4 2 4 2 C4.99 3.32 5.98 4.64 7 6 C5.35 6 3.7 6 2 6 C1.34 4.02 0.68 2.04 0 0 Z " fill="#896455" transform="translate(17,63)"/>
<path d="M0 0 C1.67542976 0.28604898 3.34385343 0.61781233 5 1 C5 2.32 5 3.64 5 5 C3.02 5 1.04 5 -1 5 C-1 1 -1 1 0 0 Z " fill="#F6D8C5" transform="translate(23,12)"/>
<path d="M0 0 C-0.33 1.65 -0.66 3.3 -1 5 C-2.98 5 -4.96 5 -7 5 C-7 3.68 -7 2.36 -7 1 C-2.25 0 -2.25 0 0 0 Z " fill="#CEA896" transform="translate(44,40)"/>
<path d="M0 0 C0.66 0 1.32 0 2 0 C2 2.97 2 5.94 2 9 C2.66 8.67 3.32 8.34 4 8 C3.45276317 11.37462715 2.9451 13.08235 1 16 C-0.06723961 12.53777385 -0.10173486 9.35960734 -0.0625 5.75 C-0.04896484 4.13351563 -0.04896484 4.13351563 -0.03515625 2.484375 C-0.02355469 1.66453125 -0.01195312 0.8446875 0 0 Z " fill="#B19591" transform="translate(3,33)"/>
<path d="M0 0 C1.32 0.66 2.64 1.32 4 2 C3.67 3.98 3.34 5.96 3 8 C1.68 8 0.36 8 -1 8 C-1.04241723 5.66705225 -1.04092937 3.33297433 -1 1 C-0.67 0.67 -0.34 0.34 0 0 Z " fill="#C59585" transform="translate(20,41)"/>
<path d="M0 0 C2.31 0.33 4.62 0.66 7 1 C7 1.99 7 2.98 7 4 C5.02 4.33 3.04 4.66 1 5 C1 5.66 1 6.32 1 7 C0.34 7 -0.32 7 -1 7 C-0.67 6.01 -0.34 5.02 0 4 C1.32 4 2.64 4 4 4 C4 3.34 4 2.68 4 2 C2.35 2.33 0.7 2.66 -1 3 C-0.67 2.01 -0.34 1.02 0 0 Z " fill="#99796C" transform="translate(14,27)"/>
<path d="M0 0 C0.33 0.66 0.66 1.32 1 2 C2.65 1.67 4.3 1.34 6 1 C6.66 2.32 7.32 3.64 8 5 C7.34 5 6.68 5 6 5 C5.67 5.66 5.34 6.32 5 7 C2 6 2 6 0 3 C0 2.01 0 1.02 0 0 Z " fill="#7C7367" transform="translate(40,9)"/>
<path d="M0 0 C2.475 0.99 2.475 0.99 5 2 C5 2.66 5 3.32 5 4 C5.99 4.33 6.98 4.66 8 5 C5.69 5.33 3.38 5.66 1 6 C1 5.67 1 5.34 1 5 C-0.65 4.67 -2.3 4.34 -4 4 C-2.68 3.34 -1.36 2.68 0 2 C0 1.34 0 0.68 0 0 Z " fill="#968476" transform="translate(17,5)"/>
<path d="M0 0 C0.99 0 1.98 0 3 0 C3 2.31 3 4.62 3 7 C1.68 7.33 0.36 7.66 -1 8 C-0.67 5.36 -0.34 2.72 0 0 Z " fill="#EDC9BB" transform="translate(28,32)"/>
<path d="M0 0 C2.97 0.495 2.97 0.495 6 1 C6 1.99 6 2.98 6 4 C3.75 5.125 3.75 5.125 1 6 C-1.3125 5.125 -1.3125 5.125 -3 4 C-1.35 3.67 0.3 3.34 2 3 C2 2.34 2 1.68 2 1 C1.34 0.67 0.68 0.34 0 0 Z " fill="#D2AA8F" transform="translate(36,16)"/>
<path d="M0 0 C1.45945288 0.08708669 2.91765868 0.19526907 4.375 0.3125 C5.59316406 0.39951172 5.59316406 0.39951172 6.8359375 0.48828125 C9 1 9 1 11 4 C8.03 3.67 5.06 3.34 2 3 C2 2.34 2 1.68 2 1 C1.34 0.67 0.68 0.34 0 0 Z " fill="#5D4D40" transform="translate(20,6)"/>
<path d="M0 0 C0.66 0 1.32 0 2 0 C4.61896089 2.82847776 5.4739075 5.21213403 6 9 C5.01 9 4.02 9 3 9 C0.50022457 5.66696609 0 4.26696398 0 0 Z " fill="#69483B" transform="translate(13,60)"/>
<path d="M0 0 C2.26274865 2.26274865 2.92661942 4.02857095 4.0625 7 C5.41920836 10.54955475 5.41920836 10.54955475 7 14 C5.109375 13.8046875 5.109375 13.8046875 3 13 C1.953125 10.8203125 1.953125 10.8203125 1.25 8.125 C1.00765625 7.24070312 0.7653125 6.35640625 0.515625 5.4453125 C0 3 0 3 0 0 Z " fill="#9D7968" transform="translate(12,49)"/>
<path d="M0 0 C0.66 0 1.32 0 2 0 C2.33 1.65 2.66 3.3 3 5 C3.66 5 4.32 5 5 5 C5 5.99 5 6.98 5 8 C5.99 8.33 6.98 8.66 8 9 C6.02 9 4.04 9 2 9 C2 7.35 2 5.7 2 4 C1.34 4 0.68 4 0 4 C0 2.68 0 1.36 0 0 Z " fill="#CDA189" transform="translate(13,17)"/>
<path d="M0 0 C0.66 0.33 1.32 0.66 2 1 C1.67 2.98 1.34 4.96 1 7 C0.01 7.33 -0.98 7.66 -2 8 C-2 6.68 -2 5.36 -2 4 C-2.66 3.67 -3.32 3.34 -4 3 C-2.68 2.67 -1.36 2.34 0 2 C0 1.34 0 0.68 0 0 Z " fill="#C49B80" transform="translate(42,18)"/>
<path d="M0 0 C1 3 1 3 0 6 C1.32 6.33 2.64 6.66 4 7 C2.68 7 1.36 7 0 7 C-0.33 7.66 -0.66 8.32 -1 9 C-1.66 8.67 -2.32 8.34 -3 8 C-2.25 2.25 -2.25 2.25 0 0 Z " fill="#AE816D" transform="translate(19,43)"/>
<path d="M0 0 C0.99 0.66 1.98 1.32 3 2 C3 2.66 3 3.32 3 4 C-3.75 5.125 -3.75 5.125 -6 4 C-6 3.34 -6 2.68 -6 2 C-3.1875 0.875 -3.1875 0.875 0 0 Z " fill="#BB8D81" transform="translate(31,38)"/>
<path d="M0 0 C0.99 0 1.98 0 3 0 C2.42415568 2.38564077 1.77772405 4.66682784 1 7 C1.66 7 2.32 7 3 7 C2.67 8.32 2.34 9.64 2 11 C1.34 10.67 0.68 10.34 0 10 C0 6.7 0 3.4 0 0 Z " fill="#CBA797" transform="translate(9,32)"/>
<path d="M0 0 C0.99 0 1.98 0 3 0 C3 2.64 3 5.28 3 8 C2.01 8 1.02 8 0 8 C0 5.36 0 2.72 0 0 Z " fill="#B6B3B6" transform="translate(0,25)"/>
<path d="M0 0 C0.33 0.66 0.66 1.32 1 2 C1.66 2 2.32 2 3 2 C2.67 2.99 2.34 3.98 2 5 C0.02 5 -1.96 5 -4 5 C-4 3.68 -4 2.36 -4 1 C-2.68 0.67 -1.36 0.34 0 0 Z " fill="#F1C5B1" transform="translate(26,20)"/>
<path d="M0 0 C1.98 0.99 1.98 0.99 4 2 C4 3.32 4 4.64 4 6 C2.68 6.33 1.36 6.66 0 7 C0 4.69 0 2.38 0 0 Z " fill="#41352D" transform="translate(48,24)"/>
<path d="M0 0 C2.64 0 5.28 0 8 0 C8.66 1.32 9.32 2.64 10 4 C6.7 3.34 3.4 2.68 0 2 C0 1.34 0 0.68 0 0 Z " fill="#6A4B3F" transform="translate(16,26)"/>
<path d="M0 0 C0.33 0 0.66 0 1 0 C1 2.31 1 4.62 1 7 C-0.65 7 -2.3 7 -4 7 C-1.125 1.125 -1.125 1.125 0 0 Z " fill="#7F655A" transform="translate(41,62)"/>
<path d="M0 0 C2.64 0 5.28 0 8 0 C8 0.66 8 1.32 8 2 C7.34 2.66 6.68 3.32 6 4 C3.375 3.625 3.375 3.625 1 3 C0.67 2.01 0.34 1.02 0 0 Z " fill="#734D3D" transform="translate(21,65)"/>
<path d="M0 0 C2.97 0.495 2.97 0.495 6 1 C6 1.66 6 2.32 6 3 C5.34 3 4.68 3 4 3 C4 3.66 4 4.32 4 5 C2.68 5 1.36 5 0 5 C0 3.35 0 1.7 0 0 Z " fill="#AD8778" transform="translate(27,27)"/>
<path d="M0 0 C0 0.99 0 1.98 0 3 C-3.63 3 -7.26 3 -11 3 C-7.20651739 1.1032587 -4.2270782 0 0 0 Z " fill="#5A392C" transform="translate(36,65)"/>
<path d="M0 0 C2.31 0 4.62 0 7 0 C7 0.66 7 1.32 7 2 C7.66 2.33 8.32 2.66 9 3 C5.625 3.1875 5.625 3.1875 2 3 C1.34 2.01 0.68 1.02 0 0 Z " fill="#946357" transform="translate(24,55)"/>
<path d="M0 0 C0.33 0 0.66 0 1 0 C1.33 3.3 1.66 6.6 2 10 C0.02 10.99 0.02 10.99 -2 12 C-1.34 8.04 -0.68 4.08 0 0 Z " fill="#B48C73" transform="translate(12,16)"/>
<path d="M0 0 C2.31 0 4.62 0 7 0 C6.67 0.99 6.34 1.98 6 3 C6.99 3.33 7.98 3.66 9 4 C8.67 4.66 8.34 5.32 8 6 C7.01 6 6.02 6 5 6 C4.87625 5.071875 4.87625 5.071875 4.75 4.125 C4.18741541 1.81562433 4.18741541 1.81562433 1.9375 0.75 C1.298125 0.5025 0.65875 0.255 0 0 Z " fill="#E8C5B1" transform="translate(23,11)"/>
<path d="M0 0 C1.32 0 2.64 0 4 0 C4 0.66 4 1.32 4 2 C3.34 2 2.68 2 2 2 C2 3.32 2 4.64 2 6 C1.01 6 0.02 6 -1 6 C-0.67 4.02 -0.34 2.04 0 0 Z " fill="#BD8B7C" transform="translate(22,53)"/>
<path d="M0 0 C0.66 0 1.32 0 2 0 C2 2.97 2 5.94 2 9 C1.67 7.68 1.34 6.36 1 5 C-0.65 5 -2.3 5 -4 5 C-3.01 4.34 -2.02 3.68 -1 3 C-0.67 2.01 -0.34 1.02 0 0 Z " fill="#9D8073" transform="translate(45,34)"/>
<path d="M0 0 C2.31 0 4.62 0 7 0 C5 3 5 3 2.375 3.6875 C1.199375 3.8421875 1.199375 3.8421875 0 4 C0 2.68 0 1.36 0 0 Z " fill="#B4AAAA" transform="translate(0,15)"/>
<path d="M0 0 C1.65 0.33 3.3 0.66 5 1 C4.67 1.99 4.34 2.98 4 4 C2.35 3.67 0.7 3.34 -1 3 C-0.67 2.01 -0.34 1.02 0 0 Z " fill="#5D3C30" transform="translate(19,31)"/>
<path d="M0 0 C2.97 0.99 5.94 1.98 9 3 C8.01 4.485 8.01 4.485 7 6 C3.31197956 4.77065985 2.27643027 3.06140622 0 0 Z " fill="#5A5249" transform="translate(27,4)"/>
<path d="M0 0 C2.97 0.33 5.94 0.66 9 1 C9 1.33 9 1.66 9 2 C7.02 2 5.04 2 3 2 C3 2.99 3 3.98 3 5 C2.01 4.67 1.02 4.34 0 4 C0.66 4 1.32 4 2 4 C1.34 2.68 0.68 1.36 0 0 Z " fill="#AF8377" transform="translate(32,38)"/>
</svg>
